<?xml version="1.0" encoding="utf-8" standalone="no"?>
<!DOCTYPE svg PUBLIC "-//W3C//DTD SVG 1.1//EN"
  "http://www.w3.org/Graphics/SVG/1.1/DTD/svg11.dtd">
<svg xmlns:xlink="http://www.w3.org/1999/xlink" width="720pt" height="360pt" viewBox="0 0 720 360" xmlns="http://www.w3.org/2000/svg" version="1.1">
 <metadata>
  <rdf:RDF xmlns:dc="http://purl.org/dc/elements/1.1/" xmlns:cc="http://creativecommons.org/ns#" xmlns:rdf="http://www.w3.org/1999/02/22-rdf-syntax-ns#">
   <cc:Work>
    <dc:type rdf:resource="http://purl.org/dc/dcmitype/StillImage"/>
    <dc:date>2025-02-06T20:11:19.676971</dc:date>
    <dc:format>image/svg+xml</dc:format>
    <dc:creator>
     <cc:Agent>
      <dc:title>Matplotlib v3.10.0, https://matplotlib.org/</dc:title>
     </cc:Agent>
    </dc:creator>
   </cc:Work>
  </rdf:RDF>
 </metadata>
 <defs>
  <style type="text/css">*{stroke-linejoin: round; stroke-linecap: butt}</style>
 </defs>
 <g id="figure_1">
  <g id="patch_1">
   <path d="M 0 360 
L 720 360 
L 720 0 
L 0 0 
z
"/>
  </g>
  <g id="axes_1">
   <g id="patch_2">
    <path d="M 90 320.4 
L 648 320.4 
L 648 43.2 
L 90 43.2 
z
"/>
   </g>
   <g id="FillBetweenPolyCollection_1">
    <defs>
     <path id="m37150b70a3" d="M 90 -5.090196 
L 90 -83.6 
L 96.340909 -83.6 
L 102.681818 -49.952941 
L 109.022727 -272.541176 
L 115.363636 -228.541176 
L 121.704545 -278.580392 
L 128.045455 -175.05098 
L 134.386364 -141.403922 
L 140.727273 -49.952941 
L 147.068182 -85.32549 
L 153.409091 -207.835294 
L 159.75 -63.756863 
L 166.090909 -90.501961 
L 172.431818 -110.345098 
L 178.772727 -120.698039 
L 185.113636 -156.070588 
L 191.454545 -79.286275 
L 197.795455 -81.011765 
L 204.136364 -123.286275 
L 210.477273 -265.639216 
L 216.818182 -49.952941 
L 223.159091 -247.521569 
L 229.5 -177.639216 
L 235.840909 -39.6 
L 242.181818 -76.698039 
L 248.522727 -72.384314 
L 254.863636 -87.05098 
L 261.204545 -159.521569 
L 267.545455 -244.070588 
L 273.886364 -84.462745 
L 280.227273 -182.815686 
L 286.568182 -134.501961 
L 292.909091 -121.560784 
L 299.25 -158.658824 
L 305.590909 -77.560784 
L 311.931818 -49.952941 
L 318.272727 -102.580392 
L 324.613636 -69.796078 
L 330.954545 -219.913725 
L 337.295455 -57.717647 
L 343.636364 -222.501961 
L 349.977273 -177.639216 
L 356.318182 -191.443137 
L 362.659091 -83.6 
L 369 -175.05098 
L 375.340909 -88.776471 
L 381.681818 -47.364706 
L 388.022727 -135.364706 
L 394.363636 -94.815686 
L 400.704545 -213.87451 
L 407.045455 -260.462745 
L 413.386364 -161.247059 
L 419.727273 -238.031373 
L 426.068182 -154.345098 
L 432.409091 -203.521569 
L 438.75 -206.109804 
L 445.090909 -77.560784 
L 451.431818 -104.305882 
L 457.772727 -177.639216 
L 464.113636 -139.678431 
L 470.454545 -62.031373 
L 476.795455 -67.207843 
L 483.136364 -187.992157 
L 489.477273 -125.011765 
L 495.818182 -158.658824 
L 502.159091 -143.129412 
L 508.5 -269.090196 
L 514.840909 -115.521569 
L 521.181818 -217.32549 
L 527.522727 -236.305882 
L 533.863636 -236.305882 
L 540.204545 -159.521569 
L 546.545455 -62.031373 
L 552.886364 -106.894118 
L 559.227273 -270.815686 
L 565.568182 -85.32549 
L 571.909091 -184.541176 
L 578.25 -106.894118 
L 584.590909 -206.109804 
L 590.931818 -52.541176 
L 597.272727 -126.737255 
L 603.613636 -50.815686 
L 609.954545 -124.14902 
L 616.295455 -76.698039 
L 622.636364 -303.6 
L 628.977273 -223.364706 
L 635.318182 -82.737255 
L 641.659091 -127.6 
L 648 -63.756863 
L 648 -5.090196 
L 648 -5.090196 
L 641.659091 -5.090196 
L 635.318182 -5.090196 
L 628.977273 -5.090196 
L 622.636364 -5.090196 
L 616.295455 -5.090196 
L 609.954545 -5.090196 
L 603.613636 -5.090196 
L 597.272727 -5.090196 
L 590.931818 -5.090196 
L 584.590909 -5.090196 
L 578.25 -5.090196 
L 571.909091 -5.090196 
L 565.568182 -5.090196 
L 559.227273 -5.090196 
L 552.886364 -5.090196 
L 546.545455 -5.090196 
L 540.204545 -5.090196 
L 533.863636 -5.090196 
L 527.522727 -5.090196 
L 521.181818 -5.090196 
L 514.840909 -5.090196 
L 508.5 -5.090196 
L 502.159091 -5.090196 
L 495.818182 -5.090196 
L 489.477273 -5.090196 
L 483.136364 -5.090196 
L 476.795455 -5.090196 
L 470.454545 -5.090196 
L 464.113636 -5.090196 
L 457.772727 -5.090196 
L 451.431818 -5.090196 
L 445.090909 -5.090196 
L 438.75 -5.090196 
L 432.409091 -5.090196 
L 426.068182 -5.090196 
L 419.727273 -5.090196 
L 413.386364 -5.090196 
L 407.045455 -5.090196 
L 400.704545 -5.090196 
L 394.363636 -5.090196 
L 388.022727 -5.090196 
L 381.681818 -5.090196 
L 375.340909 -5.090196 
L 369 -5.090196 
L 362.659091 -5.090196 
L 356.318182 -5.090196 
L 349.977273 -5.090196 
L 343.636364 -5.090196 
L 337.295455 -5.090196 
L 330.954545 -5.090196 
L 324.613636 -5.090196 
L 318.272727 -5.090196 
L 311.931818 -5.090196 
L 305.590909 -5.090196 
L 299.25 -5.090196 
L 292.909091 -5.090196 
L 286.568182 -5.090196 
L 280.227273 -5.090196 
L 273.886364 -5.090196 
L 267.545455 -5.090196 
L 261.204545 -5.090196 
L 254.863636 -5.090196 
L 248.522727 -5.090196 
L 242.181818 -5.090196 
L 235.840909 -5.090196 
L 229.5 -5.090196 
L 223.159091 -5.090196 
L 216.818182 -5.090196 
L 210.477273 -5.090196 
L 204.136364 -5.090196 
L 197.795455 -5.090196 
L 191.454545 -5.090196 
L 185.113636 -5.090196 
L 178.772727 -5.090196 
L 172.431818 -5.090196 
L 166.090909 -5.090196 
L 159.75 -5.090196 
L 153.409091 -5.090196 
L 147.068182 -5.090196 
L 140.727273 -5.090196 
L 134.386364 -5.090196 
L 128.045455 -5.090196 
L 121.704545 -5.090196 
L 115.363636 -5.090196 
L 109.022727 -5.090196 
L 102.681818 -5.090196 
L 96.340909 -5.090196 
L 90 -5.090196 
z
" style="stroke: #000000; stroke-opacity: 0.3; stroke-width: 0.5"/>
    </defs>
    <g clip-path="url(#p1d3e65750c)">
     <use xlink:href="#m37150b70a3" x="0" y="360" style="fill-opacity: 0.3; stroke: #000000; stroke-opacity: 0.3; stroke-width: 0.5"/>
    </g>
   </g>
   <g id="PathCollection_1">
    <defs>
     <path id="m0516f2c913" d="M 0 1.581139 
C 0.419323 1.581139 0.821528 1.41454 1.118034 1.118034 
C 1.41454 0.821528 1.581139 0.419323 1.581139 0 
C 1.581139 -0.419323 1.41454 -0.821528 1.118034 -1.118034 
C 0.821528 -1.41454 0.419323 -1.581139 0 -1.581139 
C -0.419323 -1.581139 -0.821528 -1.41454 -1.118034 -1.118034 
C -1.41454 -0.821528 -1.581139 -0.419323 -1.581139 0 
C -1.581139 0.419323 -1.41454 0.821528 -1.118034 1.118034 
C -0.821528 1.41454 -0.419323 1.581139 0 1.581139 
z
" style="stroke: #000000; stroke-opacity: 0.65"/>
    </defs>
    <g clip-path="url(#p1d3e65750c)">
     <use xlink:href="#m0516f2c913" x="90" y="276.4" style="fill-opacity: 0.65; stroke: #000000; stroke-opacity: 0.65"/>
     <use xlink:href="#m0516f2c913" x="96.340909" y="276.4" style="fill-opacity: 0.65; stroke: #000000; stroke-opacity: 0.65"/>
     <use xlink:href="#m0516f2c913" x="102.681818" y="310.047059" style="fill-opacity: 0.65; stroke: #000000; stroke-opacity: 0.65"/>
     <use xlink:href="#m0516f2c913" x="109.022727" y="87.458824" style="fill-opacity: 0.65; stroke: #000000; stroke-opacity: 0.65"/>
     <use xlink:href="#m0516f2c913" x="115.363636" y="131.458824" style="fill-opacity: 0.65; stroke: #000000; stroke-opacity: 0.65"/>
     <use xlink:href="#m0516f2c913" x="121.704545" y="81.419608" style="fill-opacity: 0.65; stroke: #000000; stroke-opacity: 0.65"/>
     <use xlink:href="#m0516f2c913" x="128.045455" y="184.94902" style="fill-opacity: 0.65; stroke: #000000; stroke-opacity: 0.65"/>
     <use xlink:href="#m0516f2c913" x="134.386364" y="218.596078" style="fill-opacity: 0.65; stroke: #000000; stroke-opacity: 0.65"/>
     <use xlink:href="#m0516f2c913" x="140.727273" y="310.047059" style="fill-opacity: 0.65; stroke: #000000; stroke-opacity: 0.65"/>
     <use xlink:href="#m0516f2c913" x="147.068182" y="274.67451" style="fill-opacity: 0.65; stroke: #000000; stroke-opacity: 0.65"/>
     <use xlink:href="#m0516f2c913" x="153.409091" y="152.164706" style="fill-opacity: 0.65; stroke: #000000; stroke-opacity: 0.65"/>
     <use xlink:href="#m0516f2c913" x="159.75" y="296.243137" style="fill-opacity: 0.65; stroke: #000000; stroke-opacity: 0.65"/>
     <use xlink:href="#m0516f2c913" x="166.090909" y="269.498039" style="fill-opacity: 0.65; stroke: #000000; stroke-opacity: 0.65"/>
     <use xlink:href="#m0516f2c913" x="172.431818" y="249.654902" style="fill-opacity: 0.65; stroke: #000000; stroke-opacity: 0.65"/>
     <use xlink:href="#m0516f2c913" x="178.772727" y="239.301961" style="fill-opacity: 0.65; stroke: #000000; stroke-opacity: 0.65"/>
     <use xlink:href="#m0516f2c913" x="185.113636" y="203.929412" style="fill-opacity: 0.65; stroke: #000000; stroke-opacity: 0.65"/>
     <use xlink:href="#m0516f2c913" x="191.454545" y="280.713725" style="fill-opacity: 0.65; stroke: #000000; stroke-opacity: 0.65"/>
     <use xlink:href="#m0516f2c913" x="197.795455" y="278.988235" style="fill-opacity: 0.65; stroke: #000000; stroke-opacity: 0.65"/>
     <use xlink:href="#m0516f2c913" x="204.136364" y="236.713725" style="fill-opacity: 0.65; stroke: #000000; stroke-opacity: 0.65"/>
     <use xlink:href="#m0516f2c913" x="210.477273" y="94.360784" style="fill-opacity: 0.65; stroke: #000000; stroke-opacity: 0.65"/>
     <use xlink:href="#m0516f2c913" x="216.818182" y="310.047059" style="fill-opacity: 0.65; stroke: #000000; stroke-opacity: 0.65"/>
     <use xlink:href="#m0516f2c913" x="223.159091" y="112.478431" style="fill-opacity: 0.65; stroke: #000000; stroke-opacity: 0.65"/>
     <use xlink:href="#m0516f2c913" x="229.5" y="182.360784" style="fill-opacity: 0.65; stroke: #000000; stroke-opacity: 0.65"/>
     <use xlink:href="#m0516f2c913" x="235.840909" y="320.4" style="fill-opacity: 0.65; stroke: #000000; stroke-opacity: 0.65"/>
     <use xlink:href="#m0516f2c913" x="242.181818" y="283.301961" style="fill-opacity: 0.65; stroke: #000000; stroke-opacity: 0.65"/>
     <use xlink:href="#m0516f2c913" x="248.522727" y="287.615686" style="fill-opacity: 0.65; stroke: #000000; stroke-opacity: 0.65"/>
     <use xlink:href="#m0516f2c913" x="254.863636" y="272.94902" style="fill-opacity: 0.65; stroke: #000000; stroke-opacity: 0.65"/>
     <use xlink:href="#m0516f2c913" x="261.204545" y="200.478431" style="fill-opacity: 0.65; stroke: #000000; stroke-opacity: 0.65"/>
     <use xlink:href="#m0516f2c913" x="267.545455" y="115.929412" style="fill-opacity: 0.65; stroke: #000000; stroke-opacity: 0.65"/>
     <use xlink:href="#m0516f2c913" x="273.886364" y="275.537255" style="fill-opacity: 0.65; stroke: #000000; stroke-opacity: 0.65"/>
     <use xlink:href="#m0516f2c913" x="280.227273" y="177.184314" style="fill-opacity: 0.65; stroke: #000000; stroke-opacity: 0.65"/>
     <use xlink:href="#m0516f2c913" x="286.568182" y="225.498039" style="fill-opacity: 0.65; stroke: #000000; stroke-opacity: 0.65"/>
     <use xlink:href="#m0516f2c913" x="292.909091" y="238.439216" style="fill-opacity: 0.65; stroke: #000000; stroke-opacity: 0.65"/>
     <use xlink:href="#m0516f2c913" x="299.25" y="201.341176" style="fill-opacity: 0.65; stroke: #000000; stroke-opacity: 0.65"/>
     <use xlink:href="#m0516f2c913" x="305.590909" y="282.439216" style="fill-opacity: 0.65; stroke: #000000; stroke-opacity: 0.65"/>
     <use xlink:href="#m0516f2c913" x="311.931818" y="310.047059" style="fill-opacity: 0.65; stroke: #000000; stroke-opacity: 0.65"/>
     <use xlink:href="#m0516f2c913" x="318.272727" y="257.419608" style="fill-opacity: 0.65; stroke: #000000; stroke-opacity: 0.65"/>
     <use xlink:href="#m0516f2c913" x="324.613636" y="290.203922" style="fill-opacity: 0.65; stroke: #000000; stroke-opacity: 0.65"/>
     <use xlink:href="#m0516f2c913" x="330.954545" y="140.086275" style="fill-opacity: 0.65; stroke: #000000; stroke-opacity: 0.65"/>
     <use xlink:href="#m0516f2c913" x="337.295455" y="302.282353" style="fill-opacity: 0.65; stroke: #000000; stroke-opacity: 0.65"/>
     <use xlink:href="#m0516f2c913" x="343.636364" y="137.498039" style="fill-opacity: 0.65; stroke: #000000; stroke-opacity: 0.65"/>
     <use xlink:href="#m0516f2c913" x="349.977273" y="182.360784" style="fill-opacity: 0.65; stroke: #000000; stroke-opacity: 0.65"/>
     <use xlink:href="#m0516f2c913" x="356.318182" y="168.556863" style="fill-opacity: 0.65; stroke: #000000; stroke-opacity: 0.65"/>
     <use xlink:href="#m0516f2c913" x="362.659091" y="276.4" style="fill-opacity: 0.65; stroke: #000000; stroke-opacity: 0.65"/>
     <use xlink:href="#m0516f2c913" x="369" y="184.94902" style="fill-opacity: 0.65; stroke: #000000; stroke-opacity: 0.65"/>
     <use xlink:href="#m0516f2c913" x="375.340909" y="271.223529" style="fill-opacity: 0.65; stroke: #000000; stroke-opacity: 0.65"/>
     <use xlink:href="#m0516f2c913" x="381.681818" y="312.635294" style="fill-opacity: 0.65; stroke: #000000; stroke-opacity: 0.65"/>
     <use xlink:href="#m0516f2c913" x="388.022727" y="224.635294" style="fill-opacity: 0.65; stroke: #000000; stroke-opacity: 0.65"/>
     <use xlink:href="#m0516f2c913" x="394.363636" y="265.184314" style="fill-opacity: 0.65; stroke: #000000; stroke-opacity: 0.65"/>
     <use xlink:href="#m0516f2c913" x="400.704545" y="146.12549" style="fill-opacity: 0.65; stroke: #000000; stroke-opacity: 0.65"/>
     <use xlink:href="#m0516f2c913" x="407.045455" y="99.537255" style="fill-opacity: 0.65; stroke: #000000; stroke-opacity: 0.65"/>
     <use xlink:href="#m0516f2c913" x="413.386364" y="198.752941" style="fill-opacity: 0.65; stroke: #000000; stroke-opacity: 0.65"/>
     <use xlink:href="#m0516f2c913" x="419.727273" y="121.968627" style="fill-opacity: 0.65; stroke: #000000; stroke-opacity: 0.65"/>
     <use xlink:href="#m0516f2c913" x="426.068182" y="205.654902" style="fill-opacity: 0.65; stroke: #000000; stroke-opacity: 0.65"/>
     <use xlink:href="#m0516f2c913" x="432.409091" y="156.478431" style="fill-opacity: 0.65; stroke: #000000; stroke-opacity: 0.65"/>
     <use xlink:href="#m0516f2c913" x="438.75" y="153.890196" style="fill-opacity: 0.65; stroke: #000000; stroke-opacity: 0.65"/>
     <use xlink:href="#m0516f2c913" x="445.090909" y="282.439216" style="fill-opacity: 0.65; stroke: #000000; stroke-opacity: 0.65"/>
     <use xlink:href="#m0516f2c913" x="451.431818" y="255.694118" style="fill-opacity: 0.65; stroke: #000000; stroke-opacity: 0.65"/>
     <use xlink:href="#m0516f2c913" x="457.772727" y="182.360784" style="fill-opacity: 0.65; stroke: #000000; stroke-opacity: 0.65"/>
     <use xlink:href="#m0516f2c913" x="464.113636" y="220.321569" style="fill-opacity: 0.65; stroke: #000000; stroke-opacity: 0.65"/>
     <use xlink:href="#m0516f2c913" x="470.454545" y="297.968627" style="fill-opacity: 0.65; stroke: #000000; stroke-opacity: 0.65"/>
     <use xlink:href="#m0516f2c913" x="476.795455" y="292.792157" style="fill-opacity: 0.65; stroke: #000000; stroke-opacity: 0.65"/>
     <use xlink:href="#m0516f2c913" x="483.136364" y="172.007843" style="fill-opacity: 0.65; stroke: #000000; stroke-opacity: 0.65"/>
     <use xlink:href="#m0516f2c913" x="489.477273" y="234.988235" style="fill-opacity: 0.65; stroke: #000000; stroke-opacity: 0.65"/>
     <use xlink:href="#m0516f2c913" x="495.818182" y="201.341176" style="fill-opacity: 0.65; stroke: #000000; stroke-opacity: 0.65"/>
     <use xlink:href="#m0516f2c913" x="502.159091" y="216.870588" style="fill-opacity: 0.65; stroke: #000000; stroke-opacity: 0.65"/>
     <use xlink:href="#m0516f2c913" x="508.5" y="90.909804" style="fill-opacity: 0.65; stroke: #000000; stroke-opacity: 0.65"/>
     <use xlink:href="#m0516f2c913" x="514.840909" y="244.478431" style="fill-opacity: 0.65; stroke: #000000; stroke-opacity: 0.65"/>
     <use xlink:href="#m0516f2c913" x="521.181818" y="142.67451" style="fill-opacity: 0.65; stroke: #000000; stroke-opacity: 0.65"/>
     <use xlink:href="#m0516f2c913" x="527.522727" y="123.694118" style="fill-opacity: 0.65; stroke: #000000; stroke-opacity: 0.65"/>
     <use xlink:href="#m0516f2c913" x="533.863636" y="123.694118" style="fill-opacity: 0.65; stroke: #000000; stroke-opacity: 0.65"/>
     <use xlink:href="#m0516f2c913" x="540.204545" y="200.478431" style="fill-opacity: 0.65; stroke: #000000; stroke-opacity: 0.65"/>
     <use xlink:href="#m0516f2c913" x="546.545455" y="297.968627" style="fill-opacity: 0.65; stroke: #000000; stroke-opacity: 0.65"/>
     <use xlink:href="#m0516f2c913" x="552.886364" y="253.105882" style="fill-opacity: 0.65; stroke: #000000; stroke-opacity: 0.65"/>
     <use xlink:href="#m0516f2c913" x="559.227273" y="89.184314" style="fill-opacity: 0.65; stroke: #000000; stroke-opacity: 0.65"/>
     <use xlink:href="#m0516f2c913" x="565.568182" y="274.67451" style="fill-opacity: 0.65; stroke: #000000; stroke-opacity: 0.65"/>
     <use xlink:href="#m0516f2c913" x="571.909091" y="175.458824" style="fill-opacity: 0.65; stroke: #000000; stroke-opacity: 0.65"/>
     <use xlink:href="#m0516f2c913" x="578.25" y="253.105882" style="fill-opacity: 0.65; stroke: #000000; stroke-opacity: 0.65"/>
     <use xlink:href="#m0516f2c913" x="584.590909" y="153.890196" style="fill-opacity: 0.65; stroke: #000000; stroke-opacity: 0.65"/>
     <use xlink:href="#m0516f2c913" x="590.931818" y="307.458824" style="fill-opacity: 0.65; stroke: #000000; stroke-opacity: 0.65"/>
     <use xlink:href="#m0516f2c913" x="597.272727" y="233.262745" style="fill-opacity: 0.65; stroke: #000000; stroke-opacity: 0.65"/>
     <use xlink:href="#m0516f2c913" x="603.613636" y="309.184314" style="fill-opacity: 0.65; stroke: #000000; stroke-opacity: 0.65"/>
     <use xlink:href="#m0516f2c913" x="609.954545" y="235.85098" style="fill-opacity: 0.65; stroke: #000000; stroke-opacity: 0.65"/>
     <use xlink:href="#m0516f2c913" x="616.295455" y="283.301961" style="fill-opacity: 0.65; stroke: #000000; stroke-opacity: 0.65"/>
     <use xlink:href="#m0516f2c913" x="622.636364" y="56.4" style="fill-opacity: 0.65; stroke: #000000; stroke-opacity: 0.65"/>
     <use xlink:href="#m0516f2c913" x="628.977273" y="136.635294" style="fill-opacity: 0.65; stroke: #000000; stroke-opacity: 0.65"/>
     <use xlink:href="#m0516f2c913" x="635.318182" y="277.262745" style="fill-opacity: 0.65; stroke: #000000; stroke-opacity: 0.65"/>
     <use xlink:href="#m0516f2c913" x="641.659091" y="232.4" style="fill-opacity: 0.65; stroke: #000000; stroke-opacity: 0.65"/>
     <use xlink:href="#m0516f2c913" x="648" y="296.243137" style="fill-opacity: 0.65; stroke: #000000; stroke-opacity: 0.65"/>
    </g>
   </g>
   <g id="FillBetweenPolyCollection_2">
    <defs>
     <path id="m168c65ed59" d="M 90 -5.090196 
L 90 -82.689051 
L 96.340909 -154.865641 
L 102.681818 -189.183437 
L 109.022727 -193.079429 
L 115.363636 -137.927203 
L 121.704545 -198.179253 
L 128.045455 -135.705705 
L 134.386364 -78.391263 
L 140.727273 -157.309059 
L 147.068182 -126.806169 
L 153.409091 -150.280516 
L 159.75 -107.828282 
L 166.090909 -49.686328 
L 172.431818 -148.988768 
L 178.772727 -65.63487 
L 185.113636 -165.495208 
L 191.454545 -136.856314 
L 197.795455 -130.615594 
L 204.136364 -87.942385 
L 210.477273 -129.646889 
L 216.818182 -53.554666 
L 223.159091 -230.47411 
L 229.5 -123.098663 
L 235.840909 -125.375573 
L 242.181818 -64.451098 
L 248.522727 -171.045794 
L 254.863636 -127.381964 
L 261.204545 -103.649104 
L 267.545455 -160.17853 
L 273.886364 -65.931916 
L 280.227273 -146.100686 
L 286.568182 -133.183705 
L 292.909091 -112.959659 
L 299.25 -144.190386 
L 305.590909 -86.785316 
L 311.931818 -54.136418 
L 318.272727 -104.096088 
L 324.613636 -64.719643 
L 330.954545 -181.844753 
L 337.295455 -132.762573 
L 343.636364 -138.351394 
L 349.977273 -65.756706 
L 356.318182 -147.640976 
L 362.659091 -134.519552 
L 369 -172.968917 
L 375.340909 -133.372307 
L 381.681818 -85.704578 
L 388.022727 -156.781246 
L 394.363636 -84.259842 
L 400.704545 -229.512482 
L 407.045455 -192.681391 
L 413.386364 -148.63661 
L 419.727273 -203.749423 
L 426.068182 -188.039256 
L 432.409091 -117.113844 
L 438.75 -171.940426 
L 445.090909 -107.23314 
L 451.431818 -120.472801 
L 457.772727 -108.555557 
L 464.113636 -149.994294 
L 470.454545 -156.117313 
L 476.795455 -48.781514 
L 483.136364 -169.769376 
L 489.477273 -148.96925 
L 495.818182 -168.843306 
L 502.159091 -105.514098 
L 508.5 -215.308361 
L 514.840909 -201.430913 
L 521.181818 -132.213976 
L 527.522727 -193.234447 
L 533.863636 -182.983052 
L 540.204545 -141.066132 
L 546.545455 -113.81697 
L 552.886364 -138.556262 
L 559.227273 -234.597938 
L 565.568182 -78.513802 
L 571.909091 -210.358371 
L 578.25 -79.728472 
L 584.590909 -224.943061 
L 590.931818 -132.972345 
L 597.272727 -151.940831 
L 603.613636 -75.31997 
L 609.954545 -65.918918 
L 616.295455 -113.639248 
L 622.636364 -243.922635 
L 628.977273 -100.521514 
L 635.318182 -45.754581 
L 641.659091 -129.081918 
L 648 -169.678828 
L 648 -5.090196 
L 648 -5.090196 
L 641.659091 -5.090196 
L 635.318182 -5.090196 
L 628.977273 -5.090196 
L 622.636364 -5.090196 
L 616.295455 -5.090196 
L 609.954545 -5.090196 
L 603.613636 -5.090196 
L 597.272727 -5.090196 
L 590.931818 -5.090196 
L 584.590909 -5.090196 
L 578.25 -5.090196 
L 571.909091 -5.090196 
L 565.568182 -5.090196 
L 559.227273 -5.090196 
L 552.886364 -5.090196 
L 546.545455 -5.090196 
L 540.204545 -5.090196 
L 533.863636 -5.090196 
L 527.522727 -5.090196 
L 521.181818 -5.090196 
L 514.840909 -5.090196 
L 508.5 -5.090196 
L 502.159091 -5.090196 
L 495.818182 -5.090196 
L 489.477273 -5.090196 
L 483.136364 -5.090196 
L 476.795455 -5.090196 
L 470.454545 -5.090196 
L 464.113636 -5.090196 
L 457.772727 -5.090196 
L 451.431818 -5.090196 
L 445.090909 -5.090196 
L 438.75 -5.090196 
L 432.409091 -5.090196 
L 426.068182 -5.090196 
L 419.727273 -5.090196 
L 413.386364 -5.090196 
L 407.045455 -5.090196 
L 400.704545 -5.090196 
L 394.363636 -5.090196 
L 388.022727 -5.090196 
L 381.681818 -5.090196 
L 375.340909 -5.090196 
L 369 -5.090196 
L 362.659091 -5.090196 
L 356.318182 -5.090196 
L 349.977273 -5.090196 
L 343.636364 -5.090196 
L 337.295455 -5.090196 
L 330.954545 -5.090196 
L 324.613636 -5.090196 
L 318.272727 -5.090196 
L 311.931818 -5.090196 
L 305.590909 -5.090196 
L 299.25 -5.090196 
L 292.909091 -5.090196 
L 286.568182 -5.090196 
L 280.227273 -5.090196 
L 273.886364 -5.090196 
L 267.545455 -5.090196 
L 261.204545 -5.090196 
L 254.863636 -5.090196 
L 248.522727 -5.090196 
L 242.181818 -5.090196 
L 235.840909 -5.090196 
L 229.5 -5.090196 
L 223.159091 -5.090196 
L 216.818182 -5.090196 
L 210.477273 -5.090196 
L 204.136364 -5.090196 
L 197.795455 -5.090196 
L 191.454545 -5.090196 
L 185.113636 -5.090196 
L 178.772727 -5.090196 
L 172.431818 -5.090196 
L 166.090909 -5.090196 
L 159.75 -5.090196 
L 153.409091 -5.090196 
L 147.068182 -5.090196 
L 140.727273 -5.090196 
L 134.386364 -5.090196 
L 128.045455 -5.090196 
L 121.704545 -5.090196 
L 115.363636 -5.090196 
L 109.022727 -5.090196 
L 102.681818 -5.090196 
L 96.340909 -5.090196 
L 90 -5.090196 
z
" style="stroke: #92140c; stroke-opacity: 0.3; stroke-width: 0.5"/>
    </defs>
    <g clip-path="url(#p1d3e65750c)">
     <use xlink:href="#m168c65ed59" x="0" y="360" style="fill: #92140c; fill-opacity: 0.3; stroke: #92140c; stroke-opacity: 0.3; stroke-width: 0.5"/>
    </g>
   </g>
   <g id="PathCollection_2">
    <defs>
     <path id="m3806119821" d="M 0 1.581139 
C 0.419323 1.581139 0.821528 1.41454 1.118034 1.118034 
C 1.41454 0.821528 1.581139 0.419323 1.581139 0 
C 1.581139 -0.419323 1.41454 -0.821528 1.118034 -1.118034 
C 0.821528 -1.41454 0.419323 -1.581139 0 -1.581139 
C -0.419323 -1.581139 -0.821528 -1.41454 -1.118034 -1.118034 
C -1.41454 -0.821528 -1.581139 -0.419323 -1.581139 0 
C -1.581139 0.419323 -1.41454 0.821528 -1.118034 1.118034 
C -0.821528 1.41454 -0.419323 1.581139 0 1.581139 
z
" style="stroke: #92140c; stroke-opacity: 0.65"/>
    </defs>
    <g clip-path="url(#p1d3e65750c)">
     <use xlink:href="#m3806119821" x="90" y="277.310949" style="fill: #92140c; fill-opacity: 0.65; stroke: #92140c; stroke-opacity: 0.65"/>
     <use xlink:href="#m3806119821" x="96.340909" y="205.134359" style="fill: #92140c; fill-opacity: 0.65; stroke: #92140c; stroke-opacity: 0.65"/>
     <use xlink:href="#m3806119821" x="102.681818" y="170.816563" style="fill: #92140c; fill-opacity: 0.65; stroke: #92140c; stroke-opacity: 0.65"/>
     <use xlink:href="#m3806119821" x="109.022727" y="166.920571" style="fill: #92140c; fill-opacity: 0.65; stroke: #92140c; stroke-opacity: 0.65"/>
     <use xlink:href="#m3806119821" x="115.363636" y="222.072797" style="fill: #92140c; fill-opacity: 0.65; stroke: #92140c; stroke-opacity: 0.65"/>
     <use xlink:href="#m3806119821" x="121.704545" y="161.820747" style="fill: #92140c; fill-opacity: 0.65; stroke: #92140c; stroke-opacity: 0.65"/>
     <use xlink:href="#m3806119821" x="128.045455" y="224.294295" style="fill: #92140c; fill-opacity: 0.65; stroke: #92140c; stroke-opacity: 0.65"/>
     <use xlink:href="#m3806119821" x="134.386364" y="281.608737" style="fill: #92140c; fill-opacity: 0.65; stroke: #92140c; stroke-opacity: 0.65"/>
     <use xlink:href="#m3806119821" x="140.727273" y="202.690941" style="fill: #92140c; fill-opacity: 0.65; stroke: #92140c; stroke-opacity: 0.65"/>
     <use xlink:href="#m3806119821" x="147.068182" y="233.193831" style="fill: #92140c; fill-opacity: 0.65; stroke: #92140c; stroke-opacity: 0.65"/>
     <use xlink:href="#m3806119821" x="153.409091" y="209.719484" style="fill: #92140c; fill-opacity: 0.65; stroke: #92140c; stroke-opacity: 0.65"/>
     <use xlink:href="#m3806119821" x="159.75" y="252.171718" style="fill: #92140c; fill-opacity: 0.65; stroke: #92140c; stroke-opacity: 0.65"/>
     <use xlink:href="#m3806119821" x="166.090909" y="310.313672" style="fill: #92140c; fill-opacity: 0.65; stroke: #92140c; stroke-opacity: 0.65"/>
     <use xlink:href="#m3806119821" x="172.431818" y="211.011232" style="fill: #92140c; fill-opacity: 0.65; stroke: #92140c; stroke-opacity: 0.65"/>
     <use xlink:href="#m3806119821" x="178.772727" y="294.36513" style="fill: #92140c; fill-opacity: 0.65; stroke: #92140c; stroke-opacity: 0.65"/>
     <use xlink:href="#m3806119821" x="185.113636" y="194.504792" style="fill: #92140c; fill-opacity: 0.65; stroke: #92140c; stroke-opacity: 0.65"/>
     <use xlink:href="#m3806119821" x="191.454545" y="223.143686" style="fill: #92140c; fill-opacity: 0.65; stroke: #92140c; stroke-opacity: 0.65"/>
     <use xlink:href="#m3806119821" x="197.795455" y="229.384406" style="fill: #92140c; fill-opacity: 0.65; stroke: #92140c; stroke-opacity: 0.65"/>
     <use xlink:href="#m3806119821" x="204.136364" y="272.057615" style="fill: #92140c; fill-opacity: 0.65; stroke: #92140c; stroke-opacity: 0.65"/>
     <use xlink:href="#m3806119821" x="210.477273" y="230.353111" style="fill: #92140c; fill-opacity: 0.65; stroke: #92140c; stroke-opacity: 0.65"/>
     <use xlink:href="#m3806119821" x="216.818182" y="306.445334" style="fill: #92140c; fill-opacity: 0.65; stroke: #92140c; stroke-opacity: 0.65"/>
     <use xlink:href="#m3806119821" x="223.159091" y="129.52589" style="fill: #92140c; fill-opacity: 0.65; stroke: #92140c; stroke-opacity: 0.65"/>
     <use xlink:href="#m3806119821" x="229.5" y="236.901337" style="fill: #92140c; fill-opacity: 0.65; stroke: #92140c; stroke-opacity: 0.65"/>
     <use xlink:href="#m3806119821" x="235.840909" y="234.624427" style="fill: #92140c; fill-opacity: 0.65; stroke: #92140c; stroke-opacity: 0.65"/>
     <use xlink:href="#m3806119821" x="242.181818" y="295.548902" style="fill: #92140c; fill-opacity: 0.65; stroke: #92140c; stroke-opacity: 0.65"/>
     <use xlink:href="#m3806119821" x="248.522727" y="188.954206" style="fill: #92140c; fill-opacity: 0.65; stroke: #92140c; stroke-opacity: 0.65"/>
     <use xlink:href="#m3806119821" x="254.863636" y="232.618036" style="fill: #92140c; fill-opacity: 0.65; stroke: #92140c; stroke-opacity: 0.65"/>
     <use xlink:href="#m3806119821" x="261.204545" y="256.350896" style="fill: #92140c; fill-opacity: 0.65; stroke: #92140c; stroke-opacity: 0.65"/>
     <use xlink:href="#m3806119821" x="267.545455" y="199.82147" style="fill: #92140c; fill-opacity: 0.65; stroke: #92140c; stroke-opacity: 0.65"/>
     <use xlink:href="#m3806119821" x="273.886364" y="294.068084" style="fill: #92140c; fill-opacity: 0.65; stroke: #92140c; stroke-opacity: 0.65"/>
     <use xlink:href="#m3806119821" x="280.227273" y="213.899314" style="fill: #92140c; fill-opacity: 0.65; stroke: #92140c; stroke-opacity: 0.65"/>
     <use xlink:href="#m3806119821" x="286.568182" y="226.816295" style="fill: #92140c; fill-opacity: 0.65; stroke: #92140c; stroke-opacity: 0.65"/>
     <use xlink:href="#m3806119821" x="292.909091" y="247.040341" style="fill: #92140c; fill-opacity: 0.65; stroke: #92140c; stroke-opacity: 0.65"/>
     <use xlink:href="#m3806119821" x="299.25" y="215.809614" style="fill: #92140c; fill-opacity: 0.65; stroke: #92140c; stroke-opacity: 0.65"/>
     <use xlink:href="#m3806119821" x="305.590909" y="273.214684" style="fill: #92140c; fill-opacity: 0.65; stroke: #92140c; stroke-opacity: 0.65"/>
     <use xlink:href="#m3806119821" x="311.931818" y="305.863582" style="fill: #92140c; fill-opacity: 0.65; stroke: #92140c; stroke-opacity: 0.65"/>
     <use xlink:href="#m3806119821" x="318.272727" y="255.903912" style="fill: #92140c; fill-opacity: 0.65; stroke: #92140c; stroke-opacity: 0.65"/>
     <use xlink:href="#m3806119821" x="324.613636" y="295.280357" style="fill: #92140c; fill-opacity: 0.65; stroke: #92140c; stroke-opacity: 0.65"/>
     <use xlink:href="#m3806119821" x="330.954545" y="178.155247" style="fill: #92140c; fill-opacity: 0.65; stroke: #92140c; stroke-opacity: 0.65"/>
     <use xlink:href="#m3806119821" x="337.295455" y="227.237427" style="fill: #92140c; fill-opacity: 0.65; stroke: #92140c; stroke-opacity: 0.65"/>
     <use xlink:href="#m3806119821" x="343.636364" y="221.648606" style="fill: #92140c; fill-opacity: 0.65; stroke: #92140c; stroke-opacity: 0.65"/>
     <use xlink:href="#m3806119821" x="349.977273" y="294.243294" style="fill: #92140c; fill-opacity: 0.65; stroke: #92140c; stroke-opacity: 0.65"/>
     <use xlink:href="#m3806119821" x="356.318182" y="212.359024" style="fill: #92140c; fill-opacity: 0.65; stroke: #92140c; stroke-opacity: 0.65"/>
     <use xlink:href="#m3806119821" x="362.659091" y="225.480448" style="fill: #92140c; fill-opacity: 0.65; stroke: #92140c; stroke-opacity: 0.65"/>
     <use xlink:href="#m3806119821" x="369" y="187.031083" style="fill: #92140c; fill-opacity: 0.65; stroke: #92140c; stroke-opacity: 0.65"/>
     <use xlink:href="#m3806119821" x="375.340909" y="226.627693" style="fill: #92140c; fill-opacity: 0.65; stroke: #92140c; stroke-opacity: 0.65"/>
     <use xlink:href="#m3806119821" x="381.681818" y="274.295422" style="fill: #92140c; fill-opacity: 0.65; stroke: #92140c; stroke-opacity: 0.65"/>
     <use xlink:href="#m3806119821" x="388.022727" y="203.218754" style="fill: #92140c; fill-opacity: 0.65; stroke: #92140c; stroke-opacity: 0.65"/>
     <use xlink:href="#m3806119821" x="394.363636" y="275.740158" style="fill: #92140c; fill-opacity: 0.65; stroke: #92140c; stroke-opacity: 0.65"/>
     <use xlink:href="#m3806119821" x="400.704545" y="130.487518" style="fill: #92140c; fill-opacity: 0.65; stroke: #92140c; stroke-opacity: 0.65"/>
     <use xlink:href="#m3806119821" x="407.045455" y="167.318609" style="fill: #92140c; fill-opacity: 0.65; stroke: #92140c; stroke-opacity: 0.65"/>
     <use xlink:href="#m3806119821" x="413.386364" y="211.36339" style="fill: #92140c; fill-opacity: 0.65; stroke: #92140c; stroke-opacity: 0.65"/>
     <use xlink:href="#m3806119821" x="419.727273" y="156.250577" style="fill: #92140c; fill-opacity: 0.65; stroke: #92140c; stroke-opacity: 0.65"/>
     <use xlink:href="#m3806119821" x="426.068182" y="171.960744" style="fill: #92140c; fill-opacity: 0.65; stroke: #92140c; stroke-opacity: 0.65"/>
     <use xlink:href="#m3806119821" x="432.409091" y="242.886156" style="fill: #92140c; fill-opacity: 0.65; stroke: #92140c; stroke-opacity: 0.65"/>
     <use xlink:href="#m3806119821" x="438.75" y="188.059574" style="fill: #92140c; fill-opacity: 0.65; stroke: #92140c; stroke-opacity: 0.65"/>
     <use xlink:href="#m3806119821" x="445.090909" y="252.76686" style="fill: #92140c; fill-opacity: 0.65; stroke: #92140c; stroke-opacity: 0.65"/>
     <use xlink:href="#m3806119821" x="451.431818" y="239.527199" style="fill: #92140c; fill-opacity: 0.65; stroke: #92140c; stroke-opacity: 0.65"/>
     <use xlink:href="#m3806119821" x="457.772727" y="251.444443" style="fill: #92140c; fill-opacity: 0.65; stroke: #92140c; stroke-opacity: 0.65"/>
     <use xlink:href="#m3806119821" x="464.113636" y="210.005706" style="fill: #92140c; fill-opacity: 0.65; stroke: #92140c; stroke-opacity: 0.65"/>
     <use xlink:href="#m3806119821" x="470.454545" y="203.882687" style="fill: #92140c; fill-opacity: 0.65; stroke: #92140c; stroke-opacity: 0.65"/>
     <use xlink:href="#m3806119821" x="476.795455" y="311.218486" style="fill: #92140c; fill-opacity: 0.65; stroke: #92140c; stroke-opacity: 0.65"/>
     <use xlink:href="#m3806119821" x="483.136364" y="190.230624" style="fill: #92140c; fill-opacity: 0.65; stroke: #92140c; stroke-opacity: 0.65"/>
     <use xlink:href="#m3806119821" x="489.477273" y="211.03075" style="fill: #92140c; fill-opacity: 0.65; stroke: #92140c; stroke-opacity: 0.65"/>
     <use xlink:href="#m3806119821" x="495.818182" y="191.156694" style="fill: #92140c; fill-opacity: 0.65; stroke: #92140c; stroke-opacity: 0.65"/>
     <use xlink:href="#m3806119821" x="502.159091" y="254.485902" style="fill: #92140c; fill-opacity: 0.65; stroke: #92140c; stroke-opacity: 0.65"/>
     <use xlink:href="#m3806119821" x="508.5" y="144.691639" style="fill: #92140c; fill-opacity: 0.65; stroke: #92140c; stroke-opacity: 0.65"/>
     <use xlink:href="#m3806119821" x="514.840909" y="158.569087" style="fill: #92140c; fill-opacity: 0.65; stroke: #92140c; stroke-opacity: 0.65"/>
     <use xlink:href="#m3806119821" x="521.181818" y="227.786024" style="fill: #92140c; fill-opacity: 0.65; stroke: #92140c; stroke-opacity: 0.65"/>
     <use xlink:href="#m3806119821" x="527.522727" y="166.765553" style="fill: #92140c; fill-opacity: 0.65; stroke: #92140c; stroke-opacity: 0.65"/>
     <use xlink:href="#m3806119821" x="533.863636" y="177.016948" style="fill: #92140c; fill-opacity: 0.65; stroke: #92140c; stroke-opacity: 0.65"/>
     <use xlink:href="#m3806119821" x="540.204545" y="218.933868" style="fill: #92140c; fill-opacity: 0.65; stroke: #92140c; stroke-opacity: 0.65"/>
     <use xlink:href="#m3806119821" x="546.545455" y="246.18303" style="fill: #92140c; fill-opacity: 0.65; stroke: #92140c; stroke-opacity: 0.65"/>
     <use xlink:href="#m3806119821" x="552.886364" y="221.443738" style="fill: #92140c; fill-opacity: 0.65; stroke: #92140c; stroke-opacity: 0.65"/>
     <use xlink:href="#m3806119821" x="559.227273" y="125.402062" style="fill: #92140c; fill-opacity: 0.65; stroke: #92140c; stroke-opacity: 0.65"/>
     <use xlink:href="#m3806119821" x="565.568182" y="281.486198" style="fill: #92140c; fill-opacity: 0.65; stroke: #92140c; stroke-opacity: 0.65"/>
     <use xlink:href="#m3806119821" x="571.909091" y="149.641629" style="fill: #92140c; fill-opacity: 0.65; stroke: #92140c; stroke-opacity: 0.65"/>
     <use xlink:href="#m3806119821" x="578.25" y="280.271528" style="fill: #92140c; fill-opacity: 0.65; stroke: #92140c; stroke-opacity: 0.65"/>
     <use xlink:href="#m3806119821" x="584.590909" y="135.056939" style="fill: #92140c; fill-opacity: 0.65; stroke: #92140c; stroke-opacity: 0.65"/>
     <use xlink:href="#m3806119821" x="590.931818" y="227.027655" style="fill: #92140c; fill-opacity: 0.65; stroke: #92140c; stroke-opacity: 0.65"/>
     <use xlink:href="#m3806119821" x="597.272727" y="208.059169" style="fill: #92140c; fill-opacity: 0.65; stroke: #92140c; stroke-opacity: 0.65"/>
     <use xlink:href="#m3806119821" x="603.613636" y="284.68003" style="fill: #92140c; fill-opacity: 0.65; stroke: #92140c; stroke-opacity: 0.65"/>
     <use xlink:href="#m3806119821" x="609.954545" y="294.081082" style="fill: #92140c; fill-opacity: 0.65; stroke: #92140c; stroke-opacity: 0.65"/>
     <use xlink:href="#m3806119821" x="616.295455" y="246.360752" style="fill: #92140c; fill-opacity: 0.65; stroke: #92140c; stroke-opacity: 0.65"/>
     <use xlink:href="#m3806119821" x="622.636364" y="116.077365" style="fill: #92140c; fill-opacity: 0.65; stroke: #92140c; stroke-opacity: 0.65"/>
     <use xlink:href="#m3806119821" x="628.977273" y="259.478486" style="fill: #92140c; fill-opacity: 0.65; stroke: #92140c; stroke-opacity: 0.65"/>
     <use xlink:href="#m3806119821" x="635.318182" y="314.245419" style="fill: #92140c; fill-opacity: 0.65; stroke: #92140c; stroke-opacity: 0.65"/>
     <use xlink:href="#m3806119821" x="641.659091" y="230.918082" style="fill: #92140c; fill-opacity: 0.65; stroke: #92140c; stroke-opacity: 0.65"/>
     <use xlink:href="#m3806119821" x="648" y="190.321172" style="fill: #92140c; fill-opacity: 0.65; stroke: #92140c; stroke-opacity: 0.65"/>
    </g>
   </g>
   <g id="matplotlib.axis_1">
    <g id="xtick_1">
     <g id="line2d_1">
      <path d="M 90 320.4 
L 90 43.2 
" clip-path="url(#p1d3e65750c)" style="fill: none; stroke: #ffffff; stroke-opacity: 0.7; stroke-width: 0.5; stroke-linecap: square"/>
     </g>
     <g id="line2d_2">
      <defs>
       <path id="mefb727c95c" d="M 0 0 
L 0 3.5 
" style="stroke: #ffffff; stroke-width: 0.8"/>
      </defs>
      <g>
       <use xlink:href="#mefb727c95c" x="90" y="320.4" style="fill: #ffffff; stroke: #ffffff; stroke-width: 0.8"/>
      </g>
     </g>
     <g id="text_1">
      <!-- 0 -->
      <g style="fill: #ffffff" transform="translate(86.81875 334.998438) scale(0.1 -0.1)">
       <defs>
        <path id="DejaVuSans-30" d="M 2034 4250 
Q 1547 4250 1301 3770 
Q 1056 3291 1056 2328 
Q 1056 1369 1301 889 
Q 1547 409 2034 409 
Q 2525 409 2770 889 
Q 3016 1369 3016 2328 
Q 3016 3291 2770 3770 
Q 2525 4250 2034 4250 
z
M 2034 4750 
Q 2819 4750 3233 4129 
Q 3647 3509 3647 2328 
Q 3647 1150 3233 529 
Q 2819 -91 2034 -91 
Q 1250 -91 836 529 
Q 422 1150 422 2328 
Q 422 3509 836 4129 
Q 1250 4750 2034 4750 
z
" transform="scale(0.015625)"/>
       </defs>
       <use xlink:href="#DejaVuSans-30"/>
      </g>
     </g>
    </g>
    <g id="xtick_2">
     <g id="line2d_3">
      <path d="M 153.409091 320.4 
L 153.409091 43.2 
" clip-path="url(#p1d3e65750c)" style="fill: none; stroke: #ffffff; stroke-opacity: 0.7; stroke-width: 0.5; stroke-linecap: square"/>
     </g>
     <g id="line2d_4">
      <g>
       <use xlink:href="#mefb727c95c" x="153.409091" y="320.4" style="fill: #ffffff; stroke: #ffffff; stroke-width: 0.8"/>
      </g>
     </g>
     <g id="text_2">
      <!-- 10 -->
      <g style="fill: #ffffff" transform="translate(147.046591 334.998438) scale(0.1 -0.1)">
       <defs>
        <path id="DejaVuSans-31" d="M 794 531 
L 1825 531 
L 1825 4091 
L 703 3866 
L 703 4441 
L 1819 4666 
L 2450 4666 
L 2450 531 
L 3481 531 
L 3481 0 
L 794 0 
L 794 531 
z
" transform="scale(0.015625)"/>
       </defs>
       <use xlink:href="#DejaVuSans-31"/>
       <use xlink:href="#DejaVuSans-30" transform="translate(63.623047 0)"/>
      </g>
     </g>
    </g>
    <g id="xtick_3">
     <g id="line2d_5">
      <path d="M 216.818182 320.4 
L 216.818182 43.2 
" clip-path="url(#p1d3e65750c)" style="fill: none; stroke: #ffffff; stroke-opacity: 0.7; stroke-width: 0.5; stroke-linecap: square"/>
     </g>
     <g id="line2d_6">
      <g>
       <use xlink:href="#mefb727c95c" x="216.818182" y="320.4" style="fill: #ffffff; stroke: #ffffff; stroke-width: 0.8"/>
      </g>
     </g>
     <g id="text_3">
      <!-- 20 -->
      <g style="fill: #ffffff" transform="translate(210.455682 334.998438) scale(0.1 -0.1)">
       <defs>
        <path id="DejaVuSans-32" d="M 1228 531 
L 3431 531 
L 3431 0 
L 469 0 
L 469 531 
Q 828 903 1448 1529 
Q 2069 2156 2228 2338 
Q 2531 2678 2651 2914 
Q 2772 3150 2772 3378 
Q 2772 3750 2511 3984 
Q 2250 4219 1831 4219 
Q 1534 4219 1204 4116 
Q 875 4013 500 3803 
L 500 4441 
Q 881 4594 1212 4672 
Q 1544 4750 1819 4750 
Q 2544 4750 2975 4387 
Q 3406 4025 3406 3419 
Q 3406 3131 3298 2873 
Q 3191 2616 2906 2266 
Q 2828 2175 2409 1742 
Q 1991 1309 1228 531 
z
" transform="scale(0.015625)"/>
       </defs>
       <use xlink:href="#DejaVuSans-32"/>
       <use xlink:href="#DejaVuSans-30" transform="translate(63.623047 0)"/>
      </g>
     </g>
    </g>
    <g id="xtick_4">
     <g id="line2d_7">
      <path d="M 280.227273 320.4 
L 280.227273 43.2 
" clip-path="url(#p1d3e65750c)" style="fill: none; stroke: #ffffff; stroke-opacity: 0.7; stroke-width: 0.5; stroke-linecap: square"/>
     </g>
     <g id="line2d_8">
      <g>
       <use xlink:href="#mefb727c95c" x="280.227273" y="320.4" style="fill: #ffffff; stroke: #ffffff; stroke-width: 0.8"/>
      </g>
     </g>
     <g id="text_4">
      <!-- 30 -->
      <g style="fill: #ffffff" transform="translate(273.864773 334.998438) scale(0.1 -0.1)">
       <defs>
        <path id="DejaVuSans-33" d="M 2597 2516 
Q 3050 2419 3304 2112 
Q 3559 1806 3559 1356 
Q 3559 666 3084 287 
Q 2609 -91 1734 -91 
Q 1441 -91 1130 -33 
Q 819 25 488 141 
L 488 750 
Q 750 597 1062 519 
Q 1375 441 1716 441 
Q 2309 441 2620 675 
Q 2931 909 2931 1356 
Q 2931 1769 2642 2001 
Q 2353 2234 1838 2234 
L 1294 2234 
L 1294 2753 
L 1863 2753 
Q 2328 2753 2575 2939 
Q 2822 3125 2822 3475 
Q 2822 3834 2567 4026 
Q 2313 4219 1838 4219 
Q 1578 4219 1281 4162 
Q 984 4106 628 3988 
L 628 4550 
Q 988 4650 1302 4700 
Q 1616 4750 1894 4750 
Q 2613 4750 3031 4423 
Q 3450 4097 3450 3541 
Q 3450 3153 3228 2886 
Q 3006 2619 2597 2516 
z
" transform="scale(0.015625)"/>
       </defs>
       <use xlink:href="#DejaVuSans-33"/>
       <use xlink:href="#DejaVuSans-30" transform="translate(63.623047 0)"/>
      </g>
     </g>
    </g>
    <g id="xtick_5">
     <g id="line2d_9">
      <path d="M 343.636364 320.4 
L 343.636364 43.2 
" clip-path="url(#p1d3e65750c)" style="fill: none; stroke: #ffffff; stroke-opacity: 0.7; stroke-width: 0.5; stroke-linecap: square"/>
     </g>
     <g id="line2d_10">
      <g>
       <use xlink:href="#mefb727c95c" x="343.636364" y="320.4" style="fill: #ffffff; stroke: #ffffff; stroke-width: 0.8"/>
      </g>
     </g>
     <g id="text_5">
      <!-- 40 -->
      <g style="fill: #ffffff" transform="translate(337.273864 334.998438) scale(0.1 -0.1)">
       <defs>
        <path id="DejaVuSans-34" d="M 2419 4116 
L 825 1625 
L 2419 1625 
L 2419 4116 
z
M 2253 4666 
L 3047 4666 
L 3047 1625 
L 3713 1625 
L 3713 1100 
L 3047 1100 
L 3047 0 
L 2419 0 
L 2419 1100 
L 313 1100 
L 313 1709 
L 2253 4666 
z
" transform="scale(0.015625)"/>
       </defs>
       <use xlink:href="#DejaVuSans-34"/>
       <use xlink:href="#DejaVuSans-30" transform="translate(63.623047 0)"/>
      </g>
     </g>
    </g>
    <g id="xtick_6">
     <g id="line2d_11">
      <path d="M 407.045455 320.4 
L 407.045455 43.2 
" clip-path="url(#p1d3e65750c)" style="fill: none; stroke: #ffffff; stroke-opacity: 0.7; stroke-width: 0.5; stroke-linecap: square"/>
     </g>
     <g id="line2d_12">
      <g>
       <use xlink:href="#mefb727c95c" x="407.045455" y="320.4" style="fill: #ffffff; stroke: #ffffff; stroke-width: 0.8"/>
      </g>
     </g>
     <g id="text_6">
      <!-- 50 -->
      <g style="fill: #ffffff" transform="translate(400.682955 334.998438) scale(0.1 -0.1)">
       <defs>
        <path id="DejaVuSans-35" d="M 691 4666 
L 3169 4666 
L 3169 4134 
L 1269 4134 
L 1269 2991 
Q 1406 3038 1543 3061 
Q 1681 3084 1819 3084 
Q 2600 3084 3056 2656 
Q 3513 2228 3513 1497 
Q 3513 744 3044 326 
Q 2575 -91 1722 -91 
Q 1428 -91 1123 -41 
Q 819 9 494 109 
L 494 744 
Q 775 591 1075 516 
Q 1375 441 1709 441 
Q 2250 441 2565 725 
Q 2881 1009 2881 1497 
Q 2881 1984 2565 2268 
Q 2250 2553 1709 2553 
Q 1456 2553 1204 2497 
Q 953 2441 691 2322 
L 691 4666 
z
" transform="scale(0.015625)"/>
       </defs>
       <use xlink:href="#DejaVuSans-35"/>
       <use xlink:href="#DejaVuSans-30" transform="translate(63.623047 0)"/>
      </g>
     </g>
    </g>
    <g id="xtick_7">
     <g id="line2d_13">
      <path d="M 470.454545 320.4 
L 470.454545 43.2 
" clip-path="url(#p1d3e65750c)" style="fill: none; stroke: #ffffff; stroke-opacity: 0.7; stroke-width: 0.5; stroke-linecap: square"/>
     </g>
     <g id="line2d_14">
      <g>
       <use xlink:href="#mefb727c95c" x="470.454545" y="320.4" style="fill: #ffffff; stroke: #ffffff; stroke-width: 0.8"/>
      </g>
     </g>
     <g id="text_7">
      <!-- 60 -->
      <g style="fill: #ffffff" transform="translate(464.092045 334.998438) scale(0.1 -0.1)">
       <defs>
        <path id="DejaVuSans-36" d="M 2113 2584 
Q 1688 2584 1439 2293 
Q 1191 2003 1191 1497 
Q 1191 994 1439 701 
Q 1688 409 2113 409 
Q 2538 409 2786 701 
Q 3034 994 3034 1497 
Q 3034 2003 2786 2293 
Q 2538 2584 2113 2584 
z
M 3366 4563 
L 3366 3988 
Q 3128 4100 2886 4159 
Q 2644 4219 2406 4219 
Q 1781 4219 1451 3797 
Q 1122 3375 1075 2522 
Q 1259 2794 1537 2939 
Q 1816 3084 2150 3084 
Q 2853 3084 3261 2657 
Q 3669 2231 3669 1497 
Q 3669 778 3244 343 
Q 2819 -91 2113 -91 
Q 1303 -91 875 529 
Q 447 1150 447 2328 
Q 447 3434 972 4092 
Q 1497 4750 2381 4750 
Q 2619 4750 2861 4703 
Q 3103 4656 3366 4563 
z
" transform="scale(0.015625)"/>
       </defs>
       <use xlink:href="#DejaVuSans-36"/>
       <use xlink:href="#DejaVuSans-30" transform="translate(63.623047 0)"/>
      </g>
     </g>
    </g>
    <g id="xtick_8">
     <g id="line2d_15">
      <path d="M 533.863636 320.4 
L 533.863636 43.2 
" clip-path="url(#p1d3e65750c)" style="fill: none; stroke: #ffffff; stroke-opacity: 0.7; stroke-width: 0.5; stroke-linecap: square"/>
     </g>
     <g id="line2d_16">
      <g>
       <use xlink:href="#mefb727c95c" x="533.863636" y="320.4" style="fill: #ffffff; stroke: #ffffff; stroke-width: 0.8"/>
      </g>
     </g>
     <g id="text_8">
      <!-- 70 -->
      <g style="fill: #ffffff" transform="translate(527.501136 334.998438) scale(0.1 -0.1)">
       <defs>
        <path id="DejaVuSans-37" d="M 525 4666 
L 3525 4666 
L 3525 4397 
L 1831 0 
L 1172 0 
L 2766 4134 
L 525 4134 
L 525 4666 
z
" transform="scale(0.015625)"/>
       </defs>
       <use xlink:href="#DejaVuSans-37"/>
       <use xlink:href="#DejaVuSans-30" transform="translate(63.623047 0)"/>
      </g>
     </g>
    </g>
    <g id="xtick_9">
     <g id="line2d_17">
      <path d="M 597.272727 320.4 
L 597.272727 43.2 
" clip-path="url(#p1d3e65750c)" style="fill: none; stroke: #ffffff; stroke-opacity: 0.7; stroke-width: 0.5; stroke-linecap: square"/>
     </g>
     <g id="line2d_18">
      <g>
       <use xlink:href="#mefb727c95c" x="597.272727" y="320.4" style="fill: #ffffff; stroke: #ffffff; stroke-width: 0.8"/>
      </g>
     </g>
     <g id="text_9">
      <!-- 80 -->
      <g style="fill: #ffffff" transform="translate(590.910227 334.998438) scale(0.1 -0.1)">
       <defs>
        <path id="DejaVuSans-38" d="M 2034 2216 
Q 1584 2216 1326 1975 
Q 1069 1734 1069 1313 
Q 1069 891 1326 650 
Q 1584 409 2034 409 
Q 2484 409 2743 651 
Q 3003 894 3003 1313 
Q 3003 1734 2745 1975 
Q 2488 2216 2034 2216 
z
M 1403 2484 
Q 997 2584 770 2862 
Q 544 3141 544 3541 
Q 544 4100 942 4425 
Q 1341 4750 2034 4750 
Q 2731 4750 3128 4425 
Q 3525 4100 3525 3541 
Q 3525 3141 3298 2862 
Q 3072 2584 2669 2484 
Q 3125 2378 3379 2068 
Q 3634 1759 3634 1313 
Q 3634 634 3220 271 
Q 2806 -91 2034 -91 
Q 1263 -91 848 271 
Q 434 634 434 1313 
Q 434 1759 690 2068 
Q 947 2378 1403 2484 
z
M 1172 3481 
Q 1172 3119 1398 2916 
Q 1625 2713 2034 2713 
Q 2441 2713 2670 2916 
Q 2900 3119 2900 3481 
Q 2900 3844 2670 4047 
Q 2441 4250 2034 4250 
Q 1625 4250 1398 4047 
Q 1172 3844 1172 3481 
z
" transform="scale(0.015625)"/>
       </defs>
       <use xlink:href="#DejaVuSans-38"/>
       <use xlink:href="#DejaVuSans-30" transform="translate(63.623047 0)"/>
      </g>
     </g>
    </g>
   </g>
   <g id="matplotlib.axis_2">
    <g id="ytick_1">
     <g id="line2d_19">
      <path d="M 90 311.772549 
L 648 311.772549 
" clip-path="url(#p1d3e65750c)" style="fill: none; stroke: #ffffff; stroke-opacity: 0.7; stroke-width: 0.5; stroke-linecap: square"/>
     </g>
     <g id="line2d_20">
      <defs>
       <path id="m788721d85c" d="M 0 0 
L -3.5 0 
" style="stroke: #ffffff; stroke-width: 0.8"/>
      </defs>
      <g>
       <use xlink:href="#m788721d85c" x="90" y="311.772549" style="fill: #ffffff; stroke: #ffffff; stroke-width: 0.8"/>
      </g>
     </g>
     <g id="text_10">
      <!-- 50 -->
      <g style="fill: #ffffff" transform="translate(70.275 315.571768) scale(0.1 -0.1)">
       <use xlink:href="#DejaVuSans-35"/>
       <use xlink:href="#DejaVuSans-30" transform="translate(63.623047 0)"/>
      </g>
     </g>
    </g>
    <g id="ytick_2">
     <g id="line2d_21">
      <path d="M 90 268.635294 
L 648 268.635294 
" clip-path="url(#p1d3e65750c)" style="fill: none; stroke: #ffffff; stroke-opacity: 0.7; stroke-width: 0.5; stroke-linecap: square"/>
     </g>
     <g id="line2d_22">
      <g>
       <use xlink:href="#m788721d85c" x="90" y="268.635294" style="fill: #ffffff; stroke: #ffffff; stroke-width: 0.8"/>
      </g>
     </g>
     <g id="text_11">
      <!-- 100 -->
      <g style="fill: #ffffff" transform="translate(63.9125 272.434513) scale(0.1 -0.1)">
       <use xlink:href="#DejaVuSans-31"/>
       <use xlink:href="#DejaVuSans-30" transform="translate(63.623047 0)"/>
       <use xlink:href="#DejaVuSans-30" transform="translate(127.246094 0)"/>
      </g>
     </g>
    </g>
    <g id="ytick_3">
     <g id="line2d_23">
      <path d="M 90 225.498039 
L 648 225.498039 
" clip-path="url(#p1d3e65750c)" style="fill: none; stroke: #ffffff; stroke-opacity: 0.7; stroke-width: 0.5; stroke-linecap: square"/>
     </g>
     <g id="line2d_24">
      <g>
       <use xlink:href="#m788721d85c" x="90" y="225.498039" style="fill: #ffffff; stroke: #ffffff; stroke-width: 0.8"/>
      </g>
     </g>
     <g id="text_12">
      <!-- 150 -->
      <g style="fill: #ffffff" transform="translate(63.9125 229.297258) scale(0.1 -0.1)">
       <use xlink:href="#DejaVuSans-31"/>
       <use xlink:href="#DejaVuSans-35" transform="translate(63.623047 0)"/>
       <use xlink:href="#DejaVuSans-30" transform="translate(127.246094 0)"/>
      </g>
     </g>
    </g>
    <g id="ytick_4">
     <g id="line2d_25">
      <path d="M 90 182.360784 
L 648 182.360784 
" clip-path="url(#p1d3e65750c)" style="fill: none; stroke: #ffffff; stroke-opacity: 0.7; stroke-width: 0.5; stroke-linecap: square"/>
     </g>
     <g id="line2d_26">
      <g>
       <use xlink:href="#m788721d85c" x="90" y="182.360784" style="fill: #ffffff; stroke: #ffffff; stroke-width: 0.8"/>
      </g>
     </g>
     <g id="text_13">
      <!-- 200 -->
      <g style="fill: #ffffff" transform="translate(63.9125 186.160003) scale(0.1 -0.1)">
       <use xlink:href="#DejaVuSans-32"/>
       <use xlink:href="#DejaVuSans-30" transform="translate(63.623047 0)"/>
       <use xlink:href="#DejaVuSans-30" transform="translate(127.246094 0)"/>
      </g>
     </g>
    </g>
    <g id="ytick_5">
     <g id="line2d_27">
      <path d="M 90 139.223529 
L 648 139.223529 
" clip-path="url(#p1d3e65750c)" style="fill: none; stroke: #ffffff; stroke-opacity: 0.7; stroke-width: 0.5; stroke-linecap: square"/>
     </g>
     <g id="line2d_28">
      <g>
       <use xlink:href="#m788721d85c" x="90" y="139.223529" style="fill: #ffffff; stroke: #ffffff; stroke-width: 0.8"/>
      </g>
     </g>
     <g id="text_14">
      <!-- 250 -->
      <g style="fill: #ffffff" transform="translate(63.9125 143.022748) scale(0.1 -0.1)">
       <use xlink:href="#DejaVuSans-32"/>
       <use xlink:href="#DejaVuSans-35" transform="translate(63.623047 0)"/>
       <use xlink:href="#DejaVuSans-30" transform="translate(127.246094 0)"/>
      </g>
     </g>
    </g>
    <g id="ytick_6">
     <g id="line2d_29">
      <path d="M 90 96.086275 
L 648 96.086275 
" clip-path="url(#p1d3e65750c)" style="fill: none; stroke: #ffffff; stroke-opacity: 0.7; stroke-width: 0.5; stroke-linecap: square"/>
     </g>
     <g id="line2d_30">
      <g>
       <use xlink:href="#m788721d85c" x="90" y="96.086275" style="fill: #ffffff; stroke: #ffffff; stroke-width: 0.8"/>
      </g>
     </g>
     <g id="text_15">
      <!-- 300 -->
      <g style="fill: #ffffff" transform="translate(63.9125 99.885493) scale(0.1 -0.1)">
       <use xlink:href="#DejaVuSans-33"/>
       <use xlink:href="#DejaVuSans-30" transform="translate(63.623047 0)"/>
       <use xlink:href="#DejaVuSans-30" transform="translate(127.246094 0)"/>
      </g>
     </g>
    </g>
    <g id="ytick_7">
     <g id="line2d_31">
      <path d="M 90 52.94902 
L 648 52.94902 
" clip-path="url(#p1d3e65750c)" style="fill: none; stroke: #ffffff; stroke-opacity: 0.7; stroke-width: 0.5; stroke-linecap: square"/>
     </g>
     <g id="line2d_32">
      <g>
       <use xlink:href="#m788721d85c" x="90" y="52.94902" style="fill: #ffffff; stroke: #ffffff; stroke-width: 0.8"/>
      </g>
     </g>
     <g id="text_16">
      <!-- 350 -->
      <g style="fill: #ffffff" transform="translate(63.9125 56.748238) scale(0.1 -0.1)">
       <use xlink:href="#DejaVuSans-33"/>
       <use xlink:href="#DejaVuSans-35" transform="translate(63.623047 0)"/>
       <use xlink:href="#DejaVuSans-30" transform="translate(127.246094 0)"/>
      </g>
     </g>
    </g>
   </g>
   <g id="patch_3">
    <path d="M 90 320.4 
L 90 43.2 
" style="fill: none; stroke: #ffffff; stroke-width: 0.8; stroke-linejoin: miter; stroke-linecap: square"/>
   </g>
   <g id="patch_4">
    <path d="M 648 320.4 
L 648 43.2 
" style="fill: none; stroke: #ffffff; stroke-width: 0.8; stroke-linejoin: miter; stroke-linecap: square"/>
   </g>
   <g id="patch_5">
    <path d="M 90 320.4 
L 648 320.4 
" style="fill: none; stroke: #ffffff; stroke-width: 0.8; stroke-linejoin: miter; stroke-linecap: square"/>
   </g>
   <g id="patch_6">
    <path d="M 90 43.2 
L 648 43.2 
" style="fill: none; stroke: #ffffff; stroke-width: 0.8; stroke-linejoin: miter; stroke-linecap: square"/>
   </g>
   <g id="text_17">
    <!-- Diabetes Linear Regression -->
    <g style="fill: #ffffff" transform="translate(246.133125 37.2) scale(0.18 -0.18)">
     <defs>
      <path id="DejaVuSans-44" d="M 1259 4147 
L 1259 519 
L 2022 519 
Q 2988 519 3436 956 
Q 3884 1394 3884 2338 
Q 3884 3275 3436 3711 
Q 2988 4147 2022 4147 
L 1259 4147 
z
M 628 4666 
L 1925 4666 
Q 3281 4666 3915 4102 
Q 4550 3538 4550 2338 
Q 4550 1131 3912 565 
Q 3275 0 1925 0 
L 628 0 
L 628 4666 
z
" transform="scale(0.015625)"/>
      <path id="DejaVuSans-69" d="M 603 3500 
L 1178 3500 
L 1178 0 
L 603 0 
L 603 3500 
z
M 603 4863 
L 1178 4863 
L 1178 4134 
L 603 4134 
L 603 4863 
z
" transform="scale(0.015625)"/>
      <path id="DejaVuSans-61" d="M 2194 1759 
Q 1497 1759 1228 1600 
Q 959 1441 959 1056 
Q 959 750 1161 570 
Q 1363 391 1709 391 
Q 2188 391 2477 730 
Q 2766 1069 2766 1631 
L 2766 1759 
L 2194 1759 
z
M 3341 1997 
L 3341 0 
L 2766 0 
L 2766 531 
Q 2569 213 2275 61 
Q 1981 -91 1556 -91 
Q 1019 -91 701 211 
Q 384 513 384 1019 
Q 384 1609 779 1909 
Q 1175 2209 1959 2209 
L 2766 2209 
L 2766 2266 
Q 2766 2663 2505 2880 
Q 2244 3097 1772 3097 
Q 1472 3097 1187 3025 
Q 903 2953 641 2809 
L 641 3341 
Q 956 3463 1253 3523 
Q 1550 3584 1831 3584 
Q 2591 3584 2966 3190 
Q 3341 2797 3341 1997 
z
" transform="scale(0.015625)"/>
      <path id="DejaVuSans-62" d="M 3116 1747 
Q 3116 2381 2855 2742 
Q 2594 3103 2138 3103 
Q 1681 3103 1420 2742 
Q 1159 2381 1159 1747 
Q 1159 1113 1420 752 
Q 1681 391 2138 391 
Q 2594 391 2855 752 
Q 3116 1113 3116 1747 
z
M 1159 2969 
Q 1341 3281 1617 3432 
Q 1894 3584 2278 3584 
Q 2916 3584 3314 3078 
Q 3713 2572 3713 1747 
Q 3713 922 3314 415 
Q 2916 -91 2278 -91 
Q 1894 -91 1617 61 
Q 1341 213 1159 525 
L 1159 0 
L 581 0 
L 581 4863 
L 1159 4863 
L 1159 2969 
z
" transform="scale(0.015625)"/>
      <path id="DejaVuSans-65" d="M 3597 1894 
L 3597 1613 
L 953 1613 
Q 991 1019 1311 708 
Q 1631 397 2203 397 
Q 2534 397 2845 478 
Q 3156 559 3463 722 
L 3463 178 
Q 3153 47 2828 -22 
Q 2503 -91 2169 -91 
Q 1331 -91 842 396 
Q 353 884 353 1716 
Q 353 2575 817 3079 
Q 1281 3584 2069 3584 
Q 2775 3584 3186 3129 
Q 3597 2675 3597 1894 
z
M 3022 2063 
Q 3016 2534 2758 2815 
Q 2500 3097 2075 3097 
Q 1594 3097 1305 2825 
Q 1016 2553 972 2059 
L 3022 2063 
z
" transform="scale(0.015625)"/>
      <path id="DejaVuSans-74" d="M 1172 4494 
L 1172 3500 
L 2356 3500 
L 2356 3053 
L 1172 3053 
L 1172 1153 
Q 1172 725 1289 603 
Q 1406 481 1766 481 
L 2356 481 
L 2356 0 
L 1766 0 
Q 1100 0 847 248 
Q 594 497 594 1153 
L 594 3053 
L 172 3053 
L 172 3500 
L 594 3500 
L 594 4494 
L 1172 4494 
z
" transform="scale(0.015625)"/>
      <path id="DejaVuSans-73" d="M 2834 3397 
L 2834 2853 
Q 2591 2978 2328 3040 
Q 2066 3103 1784 3103 
Q 1356 3103 1142 2972 
Q 928 2841 928 2578 
Q 928 2378 1081 2264 
Q 1234 2150 1697 2047 
L 1894 2003 
Q 2506 1872 2764 1633 
Q 3022 1394 3022 966 
Q 3022 478 2636 193 
Q 2250 -91 1575 -91 
Q 1294 -91 989 -36 
Q 684 19 347 128 
L 347 722 
Q 666 556 975 473 
Q 1284 391 1588 391 
Q 1994 391 2212 530 
Q 2431 669 2431 922 
Q 2431 1156 2273 1281 
Q 2116 1406 1581 1522 
L 1381 1569 
Q 847 1681 609 1914 
Q 372 2147 372 2553 
Q 372 3047 722 3315 
Q 1072 3584 1716 3584 
Q 2034 3584 2315 3537 
Q 2597 3491 2834 3397 
z
" transform="scale(0.015625)"/>
      <path id="DejaVuSans-20" transform="scale(0.015625)"/>
      <path id="DejaVuSans-4c" d="M 628 4666 
L 1259 4666 
L 1259 531 
L 3531 531 
L 3531 0 
L 628 0 
L 628 4666 
z
" transform="scale(0.015625)"/>
      <path id="DejaVuSans-6e" d="M 3513 2113 
L 3513 0 
L 2938 0 
L 2938 2094 
Q 2938 2591 2744 2837 
Q 2550 3084 2163 3084 
Q 1697 3084 1428 2787 
Q 1159 2491 1159 1978 
L 1159 0 
L 581 0 
L 581 3500 
L 1159 3500 
L 1159 2956 
Q 1366 3272 1645 3428 
Q 1925 3584 2291 3584 
Q 2894 3584 3203 3211 
Q 3513 2838 3513 2113 
z
" transform="scale(0.015625)"/>
      <path id="DejaVuSans-72" d="M 2631 2963 
Q 2534 3019 2420 3045 
Q 2306 3072 2169 3072 
Q 1681 3072 1420 2755 
Q 1159 2438 1159 1844 
L 1159 0 
L 581 0 
L 581 3500 
L 1159 3500 
L 1159 2956 
Q 1341 3275 1631 3429 
Q 1922 3584 2338 3584 
Q 2397 3584 2469 3576 
Q 2541 3569 2628 3553 
L 2631 2963 
z
" transform="scale(0.015625)"/>
      <path id="DejaVuSans-52" d="M 2841 2188 
Q 3044 2119 3236 1894 
Q 3428 1669 3622 1275 
L 4263 0 
L 3584 0 
L 2988 1197 
Q 2756 1666 2539 1819 
Q 2322 1972 1947 1972 
L 1259 1972 
L 1259 0 
L 628 0 
L 628 4666 
L 2053 4666 
Q 2853 4666 3247 4331 
Q 3641 3997 3641 3322 
Q 3641 2881 3436 2590 
Q 3231 2300 2841 2188 
z
M 1259 4147 
L 1259 2491 
L 2053 2491 
Q 2509 2491 2742 2702 
Q 2975 2913 2975 3322 
Q 2975 3731 2742 3939 
Q 2509 4147 2053 4147 
L 1259 4147 
z
" transform="scale(0.015625)"/>
      <path id="DejaVuSans-67" d="M 2906 1791 
Q 2906 2416 2648 2759 
Q 2391 3103 1925 3103 
Q 1463 3103 1205 2759 
Q 947 2416 947 1791 
Q 947 1169 1205 825 
Q 1463 481 1925 481 
Q 2391 481 2648 825 
Q 2906 1169 2906 1791 
z
M 3481 434 
Q 3481 -459 3084 -895 
Q 2688 -1331 1869 -1331 
Q 1566 -1331 1297 -1286 
Q 1028 -1241 775 -1147 
L 775 -588 
Q 1028 -725 1275 -790 
Q 1522 -856 1778 -856 
Q 2344 -856 2625 -561 
Q 2906 -266 2906 331 
L 2906 616 
Q 2728 306 2450 153 
Q 2172 0 1784 0 
Q 1141 0 747 490 
Q 353 981 353 1791 
Q 353 2603 747 3093 
Q 1141 3584 1784 3584 
Q 2172 3584 2450 3431 
Q 2728 3278 2906 2969 
L 2906 3500 
L 3481 3500 
L 3481 434 
z
" transform="scale(0.015625)"/>
      <path id="DejaVuSans-6f" d="M 1959 3097 
Q 1497 3097 1228 2736 
Q 959 2375 959 1747 
Q 959 1119 1226 758 
Q 1494 397 1959 397 
Q 2419 397 2687 759 
Q 2956 1122 2956 1747 
Q 2956 2369 2687 2733 
Q 2419 3097 1959 3097 
z
M 1959 3584 
Q 2709 3584 3137 3096 
Q 3566 2609 3566 1747 
Q 3566 888 3137 398 
Q 2709 -91 1959 -91 
Q 1206 -91 779 398 
Q 353 888 353 1747 
Q 353 2609 779 3096 
Q 1206 3584 1959 3584 
z
" transform="scale(0.015625)"/>
     </defs>
     <use xlink:href="#DejaVuSans-44"/>
     <use xlink:href="#DejaVuSans-69" transform="translate(77.001953 0)"/>
     <use xlink:href="#DejaVuSans-61" transform="translate(104.785156 0)"/>
     <use xlink:href="#DejaVuSans-62" transform="translate(166.064453 0)"/>
     <use xlink:href="#DejaVuSans-65" transform="translate(229.541016 0)"/>
     <use xlink:href="#DejaVuSans-74" transform="translate(291.064453 0)"/>
     <use xlink:href="#DejaVuSans-65" transform="translate(330.273438 0)"/>
     <use xlink:href="#DejaVuSans-73" transform="translate(391.796875 0)"/>
     <use xlink:href="#DejaVuSans-20" transform="translate(443.896484 0)"/>
     <use xlink:href="#DejaVuSans-4c" transform="translate(475.683594 0)"/>
     <use xlink:href="#DejaVuSans-69" transform="translate(531.396484 0)"/>
     <use xlink:href="#DejaVuSans-6e" transform="translate(559.179688 0)"/>
     <use xlink:href="#DejaVuSans-65" transform="translate(622.558594 0)"/>
     <use xlink:href="#DejaVuSans-61" transform="translate(684.082031 0)"/>
     <use xlink:href="#DejaVuSans-72" transform="translate(745.361328 0)"/>
     <use xlink:href="#DejaVuSans-20" transform="translate(786.474609 0)"/>
     <use xlink:href="#DejaVuSans-52" transform="translate(818.261719 0)"/>
     <use xlink:href="#DejaVuSans-65" transform="translate(883.244141 0)"/>
     <use xlink:href="#DejaVuSans-67" transform="translate(944.767578 0)"/>
     <use xlink:href="#DejaVuSans-72" transform="translate(1008.244141 0)"/>
     <use xlink:href="#DejaVuSans-65" transform="translate(1047.107422 0)"/>
     <use xlink:href="#DejaVuSans-73" transform="translate(1108.630859 0)"/>
     <use xlink:href="#DejaVuSans-73" transform="translate(1160.730469 0)"/>
     <use xlink:href="#DejaVuSans-69" transform="translate(1212.830078 0)"/>
     <use xlink:href="#DejaVuSans-6f" transform="translate(1240.613281 0)"/>
     <use xlink:href="#DejaVuSans-6e" transform="translate(1301.794922 0)"/>
    </g>
   </g>
   <g id="legend_1">
    <g id="patch_7">
     <path d="M 97 80.55625 
L 194.29375 80.55625 
Q 196.29375 80.55625 196.29375 78.55625 
L 196.29375 50.2 
Q 196.29375 48.2 194.29375 48.2 
L 97 48.2 
Q 95 48.2 95 50.2 
L 95 78.55625 
Q 95 80.55625 97 80.55625 
z
" style="opacity: 0.5; stroke: #cccccc; stroke-linejoin: miter"/>
    </g>
    <g id="patch_8">
     <path d="M 99 59.798437 
L 119 59.798437 
L 119 52.798437 
L 99 52.798437 
z
" style="fill-opacity: 0.3; stroke: #000000; stroke-opacity: 0.3; stroke-width: 0.5; stroke-linejoin: miter"/>
    </g>
    <g id="text_18">
     <!-- Ground Truth -->
     <g transform="translate(127 59.798437) scale(0.1 -0.1)">
      <defs>
       <path id="DejaVuSans-47" d="M 3809 666 
L 3809 1919 
L 2778 1919 
L 2778 2438 
L 4434 2438 
L 4434 434 
Q 4069 175 3628 42 
Q 3188 -91 2688 -91 
Q 1594 -91 976 548 
Q 359 1188 359 2328 
Q 359 3472 976 4111 
Q 1594 4750 2688 4750 
Q 3144 4750 3555 4637 
Q 3966 4525 4313 4306 
L 4313 3634 
Q 3963 3931 3569 4081 
Q 3175 4231 2741 4231 
Q 1884 4231 1454 3753 
Q 1025 3275 1025 2328 
Q 1025 1384 1454 906 
Q 1884 428 2741 428 
Q 3075 428 3337 486 
Q 3600 544 3809 666 
z
" transform="scale(0.015625)"/>
       <path id="DejaVuSans-75" d="M 544 1381 
L 544 3500 
L 1119 3500 
L 1119 1403 
Q 1119 906 1312 657 
Q 1506 409 1894 409 
Q 2359 409 2629 706 
Q 2900 1003 2900 1516 
L 2900 3500 
L 3475 3500 
L 3475 0 
L 2900 0 
L 2900 538 
Q 2691 219 2414 64 
Q 2138 -91 1772 -91 
Q 1169 -91 856 284 
Q 544 659 544 1381 
z
M 1991 3584 
L 1991 3584 
z
" transform="scale(0.015625)"/>
       <path id="DejaVuSans-64" d="M 2906 2969 
L 2906 4863 
L 3481 4863 
L 3481 0 
L 2906 0 
L 2906 525 
Q 2725 213 2448 61 
Q 2172 -91 1784 -91 
Q 1150 -91 751 415 
Q 353 922 353 1747 
Q 353 2572 751 3078 
Q 1150 3584 1784 3584 
Q 2172 3584 2448 3432 
Q 2725 3281 2906 2969 
z
M 947 1747 
Q 947 1113 1208 752 
Q 1469 391 1925 391 
Q 2381 391 2643 752 
Q 2906 1113 2906 1747 
Q 2906 2381 2643 2742 
Q 2381 3103 1925 3103 
Q 1469 3103 1208 2742 
Q 947 2381 947 1747 
z
" transform="scale(0.015625)"/>
       <path id="DejaVuSans-54" d="M -19 4666 
L 3928 4666 
L 3928 4134 
L 2272 4134 
L 2272 0 
L 1638 0 
L 1638 4134 
L -19 4134 
L -19 4666 
z
" transform="scale(0.015625)"/>
       <path id="DejaVuSans-68" d="M 3513 2113 
L 3513 0 
L 2938 0 
L 2938 2094 
Q 2938 2591 2744 2837 
Q 2550 3084 2163 3084 
Q 1697 3084 1428 2787 
Q 1159 2491 1159 1978 
L 1159 0 
L 581 0 
L 581 4863 
L 1159 4863 
L 1159 2956 
Q 1366 3272 1645 3428 
Q 1925 3584 2291 3584 
Q 2894 3584 3203 3211 
Q 3513 2838 3513 2113 
z
" transform="scale(0.015625)"/>
      </defs>
      <use xlink:href="#DejaVuSans-47"/>
      <use xlink:href="#DejaVuSans-72" transform="translate(77.490234 0)"/>
      <use xlink:href="#DejaVuSans-6f" transform="translate(116.353516 0)"/>
      <use xlink:href="#DejaVuSans-75" transform="translate(177.535156 0)"/>
      <use xlink:href="#DejaVuSans-6e" transform="translate(240.914062 0)"/>
      <use xlink:href="#DejaVuSans-64" transform="translate(304.292969 0)"/>
      <use xlink:href="#DejaVuSans-20" transform="translate(367.769531 0)"/>
      <use xlink:href="#DejaVuSans-54" transform="translate(399.556641 0)"/>
      <use xlink:href="#DejaVuSans-72" transform="translate(445.890625 0)"/>
      <use xlink:href="#DejaVuSans-75" transform="translate(487.003906 0)"/>
      <use xlink:href="#DejaVuSans-74" transform="translate(550.382812 0)"/>
      <use xlink:href="#DejaVuSans-68" transform="translate(589.591797 0)"/>
     </g>
    </g>
    <g id="patch_9">
     <path d="M 99 74.476562 
L 119 74.476562 
L 119 67.476562 
L 99 67.476562 
z
" style="fill: #92140c; fill-opacity: 0.3; stroke: #92140c; stroke-opacity: 0.3; stroke-width: 0.5; stroke-linejoin: miter"/>
    </g>
    <g id="text_19">
     <!-- Predictions -->
     <g transform="translate(127 74.476562) scale(0.1 -0.1)">
      <defs>
       <path id="DejaVuSans-50" d="M 1259 4147 
L 1259 2394 
L 2053 2394 
Q 2494 2394 2734 2622 
Q 2975 2850 2975 3272 
Q 2975 3691 2734 3919 
Q 2494 4147 2053 4147 
L 1259 4147 
z
M 628 4666 
L 2053 4666 
Q 2838 4666 3239 4311 
Q 3641 3956 3641 3272 
Q 3641 2581 3239 2228 
Q 2838 1875 2053 1875 
L 1259 1875 
L 1259 0 
L 628 0 
L 628 4666 
z
" transform="scale(0.015625)"/>
       <path id="DejaVuSans-63" d="M 3122 3366 
L 3122 2828 
Q 2878 2963 2633 3030 
Q 2388 3097 2138 3097 
Q 1578 3097 1268 2742 
Q 959 2388 959 1747 
Q 959 1106 1268 751 
Q 1578 397 2138 397 
Q 2388 397 2633 464 
Q 2878 531 3122 666 
L 3122 134 
Q 2881 22 2623 -34 
Q 2366 -91 2075 -91 
Q 1284 -91 818 406 
Q 353 903 353 1747 
Q 353 2603 823 3093 
Q 1294 3584 2113 3584 
Q 2378 3584 2631 3529 
Q 2884 3475 3122 3366 
z
" transform="scale(0.015625)"/>
      </defs>
      <use xlink:href="#DejaVuSans-50"/>
      <use xlink:href="#DejaVuSans-72" transform="translate(58.552734 0)"/>
      <use xlink:href="#DejaVuSans-65" transform="translate(97.416016 0)"/>
      <use xlink:href="#DejaVuSans-64" transform="translate(158.939453 0)"/>
      <use xlink:href="#DejaVuSans-69" transform="translate(222.416016 0)"/>
      <use xlink:href="#DejaVuSans-63" transform="translate(250.199219 0)"/>
      <use xlink:href="#DejaVuSans-74" transform="translate(305.179688 0)"/>
      <use xlink:href="#DejaVuSans-69" transform="translate(344.388672 0)"/>
      <use xlink:href="#DejaVuSans-6f" transform="translate(372.171875 0)"/>
      <use xlink:href="#DejaVuSans-6e" transform="translate(433.353516 0)"/>
      <use xlink:href="#DejaVuSans-73" transform="translate(496.732422 0)"/>
     </g>
    </g>
   </g>
  </g>
 </g>
 <defs>
  <clipPath id="p1d3e65750c">
   <rect x="90" y="43.2" width="558" height="277.2"/>
  </clipPath>
 </defs>
</svg>
